<?xml version="1.0" encoding="UTF-8" standalone="no"?>
<!-- Created with Inkscape (http://www.inkscape.org/) -->

<svg
   xmlns:dc="http://purl.org/dc/elements/1.1/"
   xmlns:cc="http://creativecommons.org/ns#"
   xmlns:rdf="http://www.w3.org/1999/02/22-rdf-syntax-ns#"
   xmlns:svg="http://www.w3.org/2000/svg"
   xmlns="http://www.w3.org/2000/svg"
   xmlns:sodipodi="http://sodipodi.sourceforge.net/DTD/sodipodi-0.dtd"
   xmlns:inkscape="http://www.inkscape.org/namespaces/inkscape"
   width="200mm"
   height="200mm"
   viewBox="0 0 200 200"
   version="1.1"
   id="svg225"
   inkscape:version="0.92.4 (5da689c313, 2019-01-14)"
   sodipodi:docname="github.svg">
  <defs
     id="defs219" />
  <sodipodi:namedview
     id="base"
     pagecolor="#ffffff"
     bordercolor="#666666"
     borderopacity="1.0"
     inkscape:pageopacity="0.0"
     inkscape:pageshadow="2"
     inkscape:zoom="0.35"
     inkscape:cx="400"
     inkscape:cy="560"
     inkscape:document-units="mm"
     inkscape:current-layer="layer1"
     showgrid="false"
     inkscape:window-width="2560"
     inkscape:window-height="1377"
     inkscape:window-x="-8"
     inkscape:window-y="1038"
     inkscape:window-maximized="1" />
  <metadata
     id="metadata222">
    <rdf:RDF>
      <cc:Work
         rdf:about="">
        <dc:format>image/svg+xml</dc:format>
        <dc:type
           rdf:resource="http://purl.org/dc/dcmitype/StillImage" />
        <dc:title></dc:title>
      </cc:Work>
    </rdf:RDF>
  </metadata>
  <g
     inkscape:label="Ebene 1"
     inkscape:groupmode="layer"
     id="layer1"
     transform="translate(0,-97)">
    <path
       style="fill:#ffffff;fill-opacity:1;fill-rule:evenodd;stroke:none;stroke-width:1.24785161"
       d="m 100.91961,123.16132 c -41.612923,0 -75.353662,33.73586 -75.353662,75.35856 0,33.29229 21.588812,61.53955 51.532373,71.50287 3.763058,0.69704 5.147388,-1.63781 5.147388,-3.62657 0,-1.79379 -0.07311,-7.73084 -0.102332,-14.02857 -20.964883,4.55759 -25.385981,-8.89094 -25.385981,-8.89094 -3.431585,-8.71057 -8.369374,-11.02593 -8.369374,-11.02593 -6.838814,-4.67946 0.516688,-4.58198 0.516688,-4.58198 7.5651,0.5313 11.552372,7.76498 11.552372,7.76498 6.716961,11.52309 17.625906,8.18901 21.925153,6.26359 0.677536,-4.86954 2.632184,-8.19389 4.786676,-10.0754 -16.738761,-1.90592 -34.335418,-8.36453 -34.335418,-37.24061 0,-8.22311 2.944147,-14.94983 7.764947,-20.22396 -0.779906,-1.90101 -3.358468,-9.56362 0.731164,-19.94613 0,0 6.326996,-2.02285 20.726042,7.72595 6.015035,-1.66705 12.459018,-2.50543 18.864004,-2.53468 6.405,0.0284 12.85386,0.86763 18.87864,2.53468 14.37955,-9.7488 20.70166,-7.72595 20.70166,-7.72595 4.09939,10.38251 1.52082,18.04512 0.73605,19.94613 4.83542,5.27413 7.7552,12.00085 7.7552,20.22396 0,28.94435 -17.62591,35.3152 -34.40854,37.1821 2.7053,2.33973 5.11327,6.9217 5.11327,13.95549 0,10.0803 -0.0877,18.19619 -0.0877,20.67727 0,2.00825 1.35508,4.35774 5.17663,3.61684 29.92402,-9.97307 51.48848,-38.21057 51.48848,-71.49314 -1e-5,-41.6227 -33.73587,-75.35856 -75.35368,-75.35856"
       id="path111"
       inkscape:connector-curvature="0" />
    <path
       style="fill:#ffffff;fill-opacity:1;fill-rule:nonzero;stroke:none;stroke-width:1.24785161"
       d="m 54.105679,231.35399 c -0.165718,0.37533 -0.755535,0.49232 -1.291724,0.2338 -0.545938,-0.24865 -0.853022,-0.76039 -0.677548,-1.13572 0.160873,-0.3851 0.750669,-0.49231 1.296607,-0.23381 0.550801,0.24867 0.862762,0.76043 0.672665,1.13577"
       id="path113"
       inkscape:connector-curvature="0" />
    <path
       style="fill:#ffffff;fill-opacity:1;fill-rule:nonzero;stroke:none;stroke-width:1.24785161"
       d="m 57.157064,234.76118 c -0.360705,0.33144 -1.06262,0.1804 -1.54031,-0.34594 -0.492313,-0.52645 -0.584932,-1.23325 -0.219342,-1.56961 0.370448,-0.33144 1.052872,-0.17544 1.545189,0.3509 0.492314,0.53132 0.589797,1.22836 0.214463,1.56468"
       id="path115"
       inkscape:connector-curvature="0" />
    <path
       style="fill:#ffffff;fill-opacity:1;fill-rule:nonzero;stroke:none;stroke-width:1.24785161"
       d="m 60.130459,239.09944 c -0.463068,0.32188 -1.218604,0.0248 -1.68655,-0.6483 -0.463063,-0.67268 -0.463063,-1.47694 0.0099,-1.79868 0.467945,-0.32153 1.213736,-0.0284 1.68656,0.63369 0.458186,0.68239 0.458186,1.4867 -0.0099,1.81329"
       id="path117"
       inkscape:connector-curvature="0" />
    <path
       style="fill:#ffffff;fill-opacity:1;fill-rule:nonzero;stroke:none;stroke-width:1.24785161"
       d="m 64.2006,243.29143 c -0.414324,0.45821 -1.296594,0.33638 -1.940011,-0.28758 -0.658053,-0.60444 -0.838406,-1.4672 -0.428948,-1.92542 0.419188,-0.45329 1.306337,-0.32648 1.954635,0.28758 0.653175,0.60929 0.853032,1.47693 0.414324,1.92538"
       id="path119"
       inkscape:connector-curvature="0" />
    <path
       style="fill:#ffffff;fill-opacity:1;fill-rule:nonzero;stroke:none;stroke-width:1.24785161"
       d="m 69.815934,245.72863 c -0.185209,0.5898 -1.033374,0.85793 -1.886402,0.60446 -0.853021,-0.25823 -1.4087,-0.94565 -1.238097,-1.54521 0.180363,-0.59468 1.028506,-0.87253 1.891272,-0.60444 0.848151,0.25822 1.408711,0.94565 1.233227,1.54519"
       id="path121"
       inkscape:connector-curvature="0" />
    <path
       style="fill:#ffffff;fill-opacity:1;fill-rule:nonzero;stroke:none;stroke-width:1.24785161"
       d="m 75.982078,246.17709 c 0.01945,0.62392 -0.701915,1.14061 -1.598808,1.15037 -0.901775,0.0212 -1.632928,-0.48259 -1.642684,-1.09675 0,-0.62392 0.711674,-1.13573 1.608568,-1.15037 0.896893,-0.0212 1.632924,0.48259 1.632924,1.09675"
       id="path123"
       inkscape:connector-curvature="0" />
    <path
       style="fill:#ffffff;fill-opacity:1;fill-rule:nonzero;stroke:none;stroke-width:1.24785161"
       d="m 81.719279,245.2022 c 0.107177,0.60444 -0.5167,1.22837 -1.403834,1.39408 -0.877403,0.16095 -1.686559,-0.21435 -1.798668,-0.81402 -0.107177,-0.62393 0.526434,-1.24297 1.398955,-1.40385 0.892027,-0.15598 1.691428,0.20976 1.803547,0.82379"
       id="path125"
       inkscape:connector-curvature="0" />
  </g>
</svg>
