<?xml version="1.0" encoding="UTF-8" standalone="no"?>
<svg
   xmlns:dc="http://purl.org/dc/elements/1.1/"
   xmlns:cc="http://creativecommons.org/ns#"
   xmlns:rdf="http://www.w3.org/1999/02/22-rdf-syntax-ns#"
   xmlns:svg="http://www.w3.org/2000/svg"
   xmlns="http://www.w3.org/2000/svg"
   xmlns:sodipodi="http://sodipodi.sourceforge.net/DTD/sodipodi-0.dtd"
   xmlns:inkscape="http://www.inkscape.org/namespaces/inkscape"
   id="Logo_FIXED"
   data-name="Logo — FIXED"
   viewBox="0 0 400 400"
   version="1.1"
   sodipodi:docname="Twitter_Logo_Blue.svg"
   inkscape:version="0.92.4 (5da689c313, 2019-01-14)">
  <metadata
     id="metadata15">
    <rdf:RDF>
      <cc:Work
         rdf:about="">
        <dc:format>image/svg+xml</dc:format>
        <dc:type
           rdf:resource="http://purl.org/dc/dcmitype/StillImage" />
      </cc:Work>
    </rdf:RDF>
  </metadata>
  <sodipodi:namedview
     pagecolor="#ffffff"
     bordercolor="#666666"
     borderopacity="1"
     objecttolerance="10"
     gridtolerance="10"
     guidetolerance="10"
     inkscape:pageopacity="0"
     inkscape:pageshadow="2"
     inkscape:window-width="2560"
     inkscape:window-height="1377"
     id="namedview13"
     showgrid="false"
     inkscape:zoom="0.59"
     inkscape:cx="200"
     inkscape:cy="200"
     inkscape:window-x="-8"
     inkscape:window-y="1038"
     inkscape:window-maximized="1"
     inkscape:current-layer="Logo_FIXED" />
  <defs
     id="defs4">
    <style
       id="style2">.cls-1{fill:none;}.cls-2{fill:#1da1f2;}</style>
  </defs>
  <title
     id="title6">Twitter_Logo_Blue</title>
  <rect
     class="cls-1"
     width="400"
     height="400"
     id="rect8" />
  <path
     class="cls-2"
     d="m 135.57418,354.13237 c 127.59884,0 197.39003,-105.71471 197.39003,-197.39005 0,-3.00263 0,-5.99175 -0.20289,-8.96734 a 141.15132,141.15132 0 0 0 34.61157,-35.91 A 138.47329,138.47329 0 0 1 327.52699,122.78 69.615357,69.615357 0 0 0 358.02683,84.408371 139.02783,139.02783 0 0 1 313.97452,101.24752 69.439525,69.439525 0 0 0 195.74879,164.51946 196.95723,196.95723 0 0 1 52.771525,92.036713 69.426,69.426 0 0 0 74.249898,184.64528 68.857932,68.857932 0 0 1 42.762711,175.96196 c 0,0.28404 0,0.58159 0,0.87916 a 69.398949,69.398949 0 0 0 55.657125,68.00582 69.263695,69.263695 0 0 1 -31.324886,1.19025 69.453051,69.453051 0 0 0 64.81384,48.17755 139.20366,139.20366 0 0 1 -86.156959,29.75592 141.21895,141.21895 0 0 1 -16.514543,-1.00086 196.40268,196.40268 0 0 0 106.336892,31.10847"
     id="path10"
     inkscape:connector-curvature="0"
     style="fill:#1da1f2;stroke-width:1.35254228" />
</svg>
